HIERARCHY
ROOT SpineBase
{
  OFFSET 0.000000 0.000000 0.000000
  CHANNELS 6 Xposition Yposition Zposition Zrotation Xrotation Yrotation
  JOINT SpineMid
  {
    OFFSET 0.000000 31.279111 0.000000
    CHANNELS 3 Zrotation Xrotation Yrotation
    JOINT SpineShoulder
    {
      OFFSET -0.150476 23.414160 -0.528747
      CHANNELS 3 Zrotation Xrotation Yrotation
      JOINT Neck
      {
        OFFSET -0.099929 7.793352 -0.431354
        CHANNELS 3 Zrotation Xrotation Yrotation
        JOINT Head
        {
          OFFSET -13.179733 -0.891579 11.974763
          CHANNELS 3 Zrotation Xrotation Yrotation
          End Site
          {
            OFFSET 0 0 0
          }
        }
      }
      JOINT ShoulderLeft
      {
        OFFSET -7.702429 -4.101504 -1.490825
        CHANNELS 3 Zrotation Xrotation Yrotation
        JOINT ElbowLeft
        {
          OFFSET -8.257639 -22.257132 13.816045
          CHANNELS 3 Zrotation Xrotation Yrotation
          JOINT WristLeft
          {
            OFFSET 0.554561 -21.789823 9.274581
            CHANNELS 3 Zrotation Xrotation Yrotation
            JOINT HandLeft
            {
              OFFSET -0.457020 -6.322839 0.953766
              CHANNELS 3 Zrotation Xrotation Yrotation
              JOINT HandTipLeft
              {
                OFFSET -0.566929 0.291115 -0.733212
                CHANNELS 3 Zrotation Xrotation Yrotation
                End Site
                {
                  OFFSET 0 0 0
                }
              }
              JOINT ThumbLeft
              {
                OFFSET -0.200870 0.582080 -1.971192
                CHANNELS 3 Zrotation Xrotation Yrotation
                End Site
                {
                  OFFSET 0 0 0
                }
              }
            }
          }
        }
      }
      JOINT ShoulderRight
      {
        OFFSET 7.774805 -5.366798 -13.391602
        CHANNELS 3 Zrotation Xrotation Yrotation
        JOINT ElbowRight
        {
          OFFSET 4.257473 -28.174087 -0.513709
          CHANNELS 3 Zrotation Xrotation Yrotation
          JOINT WristRight
          {
            OFFSET 10.515455 -16.091121 9.066877
            CHANNELS 3 Zrotation Xrotation Yrotation
            JOINT HandRight
            {
              OFFSET -4.709078 -7.442548 -7.522475
              CHANNELS 3 Zrotation Xrotation Yrotation
              JOINT HandTipRight
              {
                OFFSET -0.053978 -1.501002 -0.824583
                CHANNELS 3 Zrotation Xrotation Yrotation
                End Site
                {
                  OFFSET 0 0 0
                }
              }
              JOINT ThumbRight
              {
                OFFSET -0.353127 3.502415 -2.648860
                CHANNELS 3 Zrotation Xrotation Yrotation
                End Site
                {
                  OFFSET 0 0 0
                }
              }
            }
          }
        }
      }
    }
  }
  JOINT HipLeft
  {
    OFFSET -5.110316 0.123037 -1.106466
    CHANNELS 3 Zrotation Xrotation Yrotation
    JOINT KneeLeft
    {
      OFFSET -3.542364 -25.995178 2.327997
      CHANNELS 3 Zrotation Xrotation Yrotation
      JOINT AnkleLeft
      {
        OFFSET -4.126451 -24.591041 -1.083585
        CHANNELS 3 Zrotation Xrotation Yrotation
        JOINT FootLeft
        {
          OFFSET 4.422844 -6.188797 -3.813656
          CHANNELS 3 Zrotation Xrotation Yrotation
          End Site
          {
            OFFSET 0 0 0
          }
        }
      }
    }
  }
  JOINT HipRight
  {
    OFFSET 4.576303 2.437011 -5.489709
    CHANNELS 3 Zrotation Xrotation Yrotation
    JOINT KneeRight
    {
      OFFSET 0.328579 -26.818914 -0.743504
      CHANNELS 3 Zrotation Xrotation Yrotation
      JOINT AnkleRight
      {
        OFFSET -2.112412 -29.146036 -3.492308
        CHANNELS 3 Zrotation Xrotation Yrotation
        JOINT FootRight
        {
          OFFSET -4.181230 -8.147162 3.061132
          CHANNELS 3 Zrotation Xrotation Yrotation
          End Site
          {
            OFFSET 0 0 0
          }
        }
      }
    }
  }
}
MOTION
Frames: 10
Frame Time: 0.033333
34.813470 61.684648 362.020552 -0.000000 0.000000 24.346990 -0.000000 0.000000 -24.346990 -0.000000 0.000000 0.000000 -0.000000 0.000000 0.000000 0.000000 0.000000 0.000000 -0.000000 0.000000 0.000000 -0.000000 0.000000 0.000000 -0.000000 0.000000 0.000000 -0.000000 0.000000 0.000000 0.000000 0.000000 0.000000 0.000000 0.000000 0.000000 -0.000000 0.000000 0.000000 -0.000000 0.000000 0.000000 -0.000000 0.000000 0.000000 -0.000000 0.000000 0.000000 0.000000 0.000000 0.000000 0.000000 0.000000 0.000000 -0.000000 0.000000 -24.346990 -0.000000 0.000000 0.000000 -0.000000 0.000000 0.000000 0.000000 0.000000 0.000000 -0.000000 0.000000 -24.346990 -0.000000 0.000000 0.000000 -0.000000 0.000000 0.000000 0.000000 0.000000 0.000000
35.194051 61.598369 361.523492 0.623158 0.661914 25.981417 -0.850160 -0.321984 -25.987405 -0.000000 0.000000 0.000000 -7.505801 -8.386824 7.669983 0.000000 0.000000 0.000000 -0.000000 0.000000 0.000000 -0.000000 0.000000 0.000000 -0.000000 0.000000 0.000000 -0.000000 0.000000 0.000000 0.000000 0.000000 0.000000 0.000000 0.000000 0.000000 -0.000000 0.000000 0.000000 -2.353969 3.563928 1.110775 7.465932 -10.528120 -1.355273 -6.698923 4.974256 2.303468 0.000000 0.000000 0.000000 0.000000 0.000000 0.000000 -1.875335 -0.684531 -25.959130 0.763121 0.774610 -0.042438 -0.719977 -1.208088 -0.432062 0.000000 0.000000 0.000000 -3.247272 -0.743444 -25.972576 2.372382 0.546860 -0.052958 1.206276 1.587325 0.196114 0.000000 0.000000 0.000000
35.519257 61.536771 361.109436 1.080952 1.195482 27.158935 -0.568479 -0.341716 -27.149668 -0.731351 -0.631671 -0.024605 -15.559090 -20.112820 16.068143 0.000000 0.000000 0.000000 -0.000000 0.000000 0.000000 -0.000000 0.000000 0.000000 -0.000000 0.000000 0.000000 -0.000000 0.000000 0.000000 0.000000 0.000000 0.000000 0.000000 0.000000 0.000000 1.218112 0.031746 -0.017723 -5.975789 6.759013 2.191060 15.960706 -22.163670 -0.827881 -13.274998 9.171072 5.054033 0.000000 0.000000 0.000000 0.000000 0.000000 0.000000 -3.353908 -1.195385 -27.137056 1.358356 1.398077 -0.085678 -1.197865 -1.949884 -0.688186 0.000000 0.000000 0.000000 -6.018189 -1.176099 -27.174719 4.518754 0.957166 -0.155931 1.978341 3.462514 -0.038282 0.000000 0.000000 0.000000
35.789089 61.499856 360.778384 1.375297 1.602642 27.951296 -0.768136 -0.427026 -27.945416 -0.265988 -0.280272 0.016152 -23.374415 -33.738938 23.390968 0.000000 0.000000 0.000000 0.371919 -0.298148 0.480744 -1.005674 -0.277969 -0.521110 -0.000000 0.000000 0.000000 0.031353 0.446170 0.956586 0.000000 0.000000 0.000000 0.000000 0.000000 0.000000 1.285979 -0.384025 -0.033913 -8.984799 9.324229 3.085653 26.182516 -34.101919 2.426377 -19.695859 12.987314 8.216721 0.000000 0.000000 0.000000 0.000000 0.000000 0.000000 -4.415091 -1.587073 -27.938817 1.781987 1.867309 -0.124370 -1.432548 -2.239483 -0.761821 0.000000 0.000000 0.000000 -8.279949 -1.382895 -27.998756 6.426599 1.230214 -0.284907 2.353479 5.664943 -0.703937 0.000000 0.000000 0.000000
36.003546 61.487623 360.530335 1.507370 1.884873 28.405263 -0.907315 -0.464709 -28.404448 -0.324626 -0.341046 0.013679 -28.442705 -45.180948 29.113768 0.000000 0.000000 0.000000 1.001832 0.188951 0.634310 -1.009123 -0.407748 -0.409664 -0.605453 -0.470425 -0.271726 0.056071 0.553805 1.233250 0.000000 0.000000 0.000000 0.000000 0.000000 0.000000 2.077123 -0.224535 -0.001050 -11.833232 11.193062 3.711802 39.063592 -45.031597 9.511518 -25.726234 16.559325 11.562775 0.000000 0.000000 0.000000 0.000000 0.000000 0.000000 -5.046195 -1.894487 -28.402313 2.609054 1.449254 -0.075839 -2.007571 -1.354510 -0.726712 0.000000 0.000000 0.000000 -10.016055 -1.423920 -28.476289 8.087965 1.368120 -0.418880 2.350283 8.279477 -1.831684 0.000000 0.000000 0.000000
36.162629 61.500073 360.365290 1.477559 2.043057 28.547613 -0.985020 -0.458484 -28.551862 -0.368386 -0.385738 0.007195 -31.371881 -53.430398 33.199234 0.000000 0.000000 0.000000 1.905935 0.991457 0.782391 -1.343838 -0.999259 -0.374044 -1.045253 -0.749134 -0.469611 0.088322 0.640786 1.488509 0.000000 0.000000 0.000000 0.000000 0.000000 0.000000 3.058418 0.086967 0.049775 -14.422842 12.329523 3.993152 55.270785 -53.431984 21.274479 -30.982293 19.877821 14.615670 0.000000 0.000000 0.000000 0.000000 0.000000 0.000000 -5.238915 -2.136874 -28.548425 2.673991 1.235997 -0.032053 -1.758118 -0.395135 -0.491966 0.000000 0.000000 0.000000 -11.220220 -1.339517 -28.625926 9.498425 1.374080 -0.540487 1.971739 11.445457 -3.487206 0.000000 0.000000 0.000000
36.236785 61.499547 360.297268 1.251227 2.017926 28.434791 -0.913494 -0.363842 -28.440431 -0.397066 -0.413984 -0.002415 -30.692455 -60.266875 40.365718 0.000000 0.000000 0.000000 3.212832 2.349352 0.903119 -1.631663 -1.917429 -0.169593 -1.854444 -1.228260 -0.837043 0.147880 0.810592 1.980121 0.000000 0.000000 0.000000 0.000000 0.000000 0.000000 4.552689 0.573266 0.113680 -18.059022 13.517518 4.090707 79.005534 -59.030543 41.847283 -36.500265 26.557746 16.925093 0.000000 0.000000 0.000000 0.000000 0.000000 0.000000 -5.199420 -2.090785 -28.462428 2.916449 1.088762 0.007002 -0.590261 1.206029 -0.169935 0.000000 0.000000 0.000000 -11.755421 -1.091880 -28.488459 10.528406 1.284411 -0.623242 0.442152 17.664383 -7.355694 0.000000 0.000000 0.000000
36.240794 61.564597 360.278480 0.792408 1.928498 27.922771 -0.849165 -0.239093 -27.932452 -0.440210 -0.388492 -0.021907 -29.887962 -63.713433 43.678202 0.000000 0.000000 0.000000 5.326340 4.243747 1.121667 -2.358053 -3.280378 -0.060040 -2.790266 -1.784688 -1.269093 0.209701 0.883065 2.282158 0.000000 0.000000 0.000000 0.000000 0.000000 0.000000 6.245558 1.252188 0.208891 -20.745792 13.541355 3.599627 97.120548 -59.702847 59.984418 -35.239099 28.799788 12.919047 0.000000 0.000000 0.000000 0.000000 0.000000 0.000000 -4.646518 -2.617754 -27.897579 3.181813 0.505056 0.057861 1.426007 6.739955 1.294352 0.000000 0.000000 0.000000 -11.871249 -0.956885 -27.958549 11.608025 1.416113 -0.748499 -0.683743 22.463524 -10.421443 0.000000 0.000000 0.000000
36.139770 61.693993 360.411581 0.133994 1.671003 26.940822 -0.730989 -0.104486 -26.954371 -0.375134 -0.373075 -0.039842 -30.491790 -63.482230 41.863017 0.000000 0.000000 0.000000 6.549812 5.463043 1.064485 -2.281291 -3.820401 0.309546 -3.567640 -2.369065 -1.639863 0.283763 0.836805 2.374162 0.000000 0.000000 0.000000 0.000000 0.000000 0.000000 7.986207 2.182666 0.288503 -22.461149 12.565604 2.645931 113.965058 -57.660449 76.672988 -37.811302 28.476091 14.314944 0.000000 0.000000 0.000000 0.000000 0.000000 0.000000 -2.641266 -2.849209 -26.821599 1.483743 -0.957947 0.262732 2.181755 9.001722 1.790106 0.000000 0.000000 0.000000 -11.241664 -0.604500 -26.919607 12.295842 0.950877 -0.772223 -1.555666 26.034122 -12.681804 0.000000 0.000000 0.000000
36.221163 61.838397 360.526114 -0.272804 1.499668 25.691027 -0.692426 0.005729 -25.708893 -0.324279 -0.396756 -0.052478 -34.244534 -62.305117 35.156682 0.000000 0.000000 0.000000 8.156742 7.379886 1.008846 -2.379981 -5.071996 0.781399 -4.763713 -2.888628 -2.200935 0.329452 0.742734 2.298434 0.000000 0.000000 0.000000 0.000000 0.000000 0.000000 9.120335 3.042180 0.344689 -22.756243 10.788502 1.461960 104.588424 -58.293317 72.337438 -32.185010 25.470473 7.926575 0.000000 0.000000 0.000000 0.000000 0.000000 0.000000 -0.699903 -2.798044 -25.495461 -0.717970 -2.574585 0.464090 2.924192 11.388185 2.712164 0.000000 0.000000 0.000000 -10.997658 -0.098786 -25.597296 12.999138 0.228503 -0.746295 -2.375478 28.533526 -14.211286 0.000000 0.000000 0.000000
